<svg xmlns="http://www.w3.org/2000/svg" viewBox="0 0 960 540" fill="#FFAE3C"><path d="M778.6 434c23 23.7 27.7 67.1 18.1 106.3-9.7 39.2-33.9 74.1-64.3 84.2-30.3 10-67-4.9-100.6-22.4-33.6-17.6-64.2-37.8-72.7-65.8-8.5-27.9 5.1-63.6 27.8-87.2 22.6-23.6 54.4-35.1 90.9-38.9s77.7.1 100.8 23.8zm-360.1-78c20.3 21.8 31.8 54.3 25.9 84.1-5.8 29.7-28.9 56.8-57 68.5-28.2 11.7-61.5 8.2-89.8-5.5-28.2-13.7-51.6-37.5-56.6-64.2-5-26.6 8.3-56.1 27.9-77.8 19.5-21.7 45.3-35.7 72.8-37 27.4-1.3 56.5 10 76.8 31.9zM632.7 77c13.4 14.1 19.4 36.7 14.3 55.8-5.1 19.2-21.3 34.9-40.2 43.4-18.9 8.4-40.5 9.6-56 1.1-15.6-8.6-25.2-26.9-30.3-46.9s-5.8-41.7 4.5-55.1c10.4-13.5 31.7-18.7 52.7-18.4 21 .2 41.7 5.9 55 20.1zM140.9-48.9c15.8 21.3 22.6 48.4 16.6 72.1-5.9 23.6-24.5 43.6-49.7 59.3-25.1 15.8-56.9 27.1-83.3 18-26.3-9.1-47.3-38.8-52.2-69.4C-32.6.4-21.4-31.3-1.6-53.4c19.8-22.2 48.2-34.7 74.9-33.4 26.7 1.4 51.7 16.7 67.6 37.9zm854.6 293.8c20.9 19.4 35.1 51.1 30 80.3-5.2 29.2-29.7 55.8-59.2 68.8-29.5 12.9-64.1 12.2-89.3-2.1-25.3-14.3-41.2-42.3-47-71.5-5.9-29.2-1.5-59.7 15-78 16.5-18.4 45.3-24.7 73.5-24.3 28.3.4 56 7.4 77 26.8z"/></svg>
